<?xml version="1.0" encoding="utf-8"?>
<!-- Generator: Adobe Illustrator 17.0.0, SVG Export Plug-In . SVG Version: 6.00 Build 0)  -->
<!DOCTYPE svg PUBLIC "-//W3C//DTD SVG 1.1//EN" "http://www.w3.org/Graphics/SVG/1.1/DTD/svg11.dtd">
<svg version="1.1" id="Layer_1" xmlns="http://www.w3.org/2000/svg" xmlns:xlink="http://www.w3.org/1999/xlink" x="0px" y="0px"
	 width="142.794px" height="40px" viewBox="0 0 142.794 40" enable-background="new 0 0 142.794 40" xml:space="preserve">
<g>
	<g>
		<path fill="#6B200D" d="M127.377,38.528c0,0,6.333-30.156,15.18-38.528c0,0-8.81,0.334-18.446,2.802
			c0,0-2.496,23.782,1.392,35.229L127.377,38.528z"/>
		<path fill="#6B200D" d="M115.588,34.251c0,0,2.196-26.787,7.227-31.067l-9.422,3.43c0,0-3.799,14.614-3.085,24.783L115.588,34.251
			z"/>
		<path fill="#F05A22" d="M103.362,11.522c2.314,6.716,4.628,13.432,6.942,20.147c1.79,0.993,3.609,1.914,5.447,2.755
			c-1.22-5.314-3.855-17.471-4.694-26.786C108.46,8.82,105.891,10.119,103.362,11.522z"/>
		<path fill="#F05A22" d="M122.814,3.184c-3.161,0.955-6.309,2.106-9.422,3.43c2.519,9.136,6.973,23.397,12.109,31.417
			c0.625,0.176,1.249,0.343,1.875,0.497C125.219,31.348,120.55,13.811,122.814,3.184z"/>
		<path fill="#F05A22" d="M142.557,0c-6.081,0.054-12.282,1.049-18.446,2.802c2.078,6.424,8.984,26.826,16.069,37.198
			c0.876-0.023,1.748-0.077,2.615-0.157C141.175,31.092,138.261,11.256,142.557,0z"/>
	</g>
	<g>
		<path fill="#F05A22" d="M14.622,11.152v3.36H3.891v5.808h7.872v3.332H3.891V31.7H0V11.152H14.622z"/>
		<path fill="#F05A22" d="M35.727,21.234c0,8.49-3.243,10.878-9.758,10.878c-6.544,0-9.787-2.389-9.787-10.878
			c0-8.343,3.272-10.583,9.787-10.583S35.727,12.892,35.727,21.234z M31.6,21.294c0-6.221-1.12-7.134-5.631-7.134
			c-4.51,0-5.63,0.914-5.63,7.134c0,6.19,1.12,7.311,5.63,7.311C30.48,28.604,31.6,27.484,31.6,21.294z"/>
		<path fill="#F05A22" d="M48.517,10.651c1.887,0,4.304,0.324,5.896,0.767l-0.855,3.42c-1.062-0.383-2.978-0.649-4.363-0.649
			c-4.481,0-6.161,0.767-6.161,7.075c0,6.309,1.68,7.282,6.161,7.282c1.386,0,3.302-0.266,4.363-0.648l0.855,3.479
			c-1.592,0.442-4.01,0.737-5.896,0.737c-6.515,0-9.64-2.506-9.64-10.878C38.878,12.833,42.003,10.651,48.517,10.651z"/>
		<path fill="#F05A22" d="M74.338,25.479c0,5.396-3.272,6.634-8.637,6.634s-8.638-1.238-8.638-6.634V11.152h3.921V24.89
			c0,2.741,1.208,3.655,4.717,3.655c3.332,0,4.747-0.767,4.747-3.655V11.152h3.861L74.338,25.479z"/>
		<path fill="#F05A22" d="M92.258,14.926c-1.149-0.413-3.36-0.737-5.424-0.737c-3.272,0-4.629,0.678-4.629,2.683
			c0,1.563,0.767,2.27,4.511,2.624c4.776,0.501,6.898,2.27,6.898,6.162c0,4.834-2.948,6.456-8.873,6.456
			c-2.271,0-4.747-0.354-6.397-0.914l0.854-3.361c1.298,0.413,3.479,0.737,5.483,0.737c3.272,0,4.746-0.59,4.746-2.712
			c0-1.533-0.736-2.506-4.687-2.859c-4.54-0.442-6.663-1.857-6.663-5.661c0-4.834,3.007-6.692,8.756-6.692
			c2.24,0,4.658,0.383,6.279,0.914L92.258,14.926z"/>
	</g>
</g>
</svg>
